<?xml version="1.0" encoding="utf-8"?>
<!-- Generator: Adobe Illustrator 16.0.0, SVG Export Plug-In . SVG Version: 6.00 Build 0)  -->
<!DOCTYPE svg PUBLIC "-//W3C//DTD SVG 1.1//EN" "http://www.w3.org/Graphics/SVG/1.1/DTD/svg11.dtd">
<svg version="1.1" id="Layer_1" xmlns="http://www.w3.org/2000/svg" xmlns:xlink="http://www.w3.org/1999/xlink" x="0px" y="0px"
	 width="500px" height="162.559px" viewBox="0 0 500 162.559" enable-background="new 0 0 500 162.559" xml:space="preserve">
<path fill="#ED1C24" d="M229.638,56.105c-8.977,0.018-18.972,3.005-24.623,7.451l-2.977,2.38l1.284-5.073
	c0.027-0.155,0.027-0.202,0.037-0.282c0-0.296-0.107-0.789-0.498-1.251c-0.706-0.79-2.247-1.636-6.041-1.636
	c-2.587,0.01-4.707,0.433-6.132,1.27l-0.079,0.052l-0.058,0.047c-0.008,0-0.112,0.095-0.239,0.202
	c-0.02,0.02-0.742,0.654-0.908,0.818c-6.699,5.835-11.203,7.79-15.646,7.79h-0.037c-0.037,0-0.085,0-0.156,0.01
	c-2.769-0.047-4.484-1.242-5.811-3.032c-4.785-6.54-13.714-8.591-21.82-8.601h-0.386c-16.841,0.029-31.284,5.825-36.126,15.061
	c-5.576,10.757-14.369,33.607-14.755,34.641c-0.826,2.014-1.25,4.007-1.25,5.935c0,2.425,0.681,4.72,2.04,6.731
	c3.621,5.332,11.236,8.21,20.838,8.21h0.366c16.841-0.037,32.748-5.681,37.647-16.831c4.005-9.253,10.196-26.354,12.088-31.281
	c0.671,0.066,1.335,0.084,2.002,0.084c5.967-0.018,11.892-2.232,15.778-4.979c-2.51,6.78-8.769,23.726-15.049,40.688
	c-4.053,10.954-8.105,21.91-11.147,30.138c-1.523,4.109-2.793,7.551-3.691,9.958c-0.441,1.204-0.8,2.144-1.039,2.803
	c-0.122,0.318-0.211,0.563-0.269,0.732c-0.037,0.094-0.055,0.151-0.074,0.198c-0.043,0.085-0.185,0.356-0.185,0.752
	c0,0.254,0.067,0.573,0.249,0.866c0.635,0.967,2.521,2.51,10.734,2.529c11.401-0.029,13.484-3.706,13.714-4.326l12.582-34.237
	c2.793,1.138,8.03,2.604,13.357,2.604c13.122,0.094,28.399-4.457,39.198-35.178c1.89-5.293,3.361-9.709,4.372-13.954
	c0.532-2.205,0.789-4.265,0.789-6.179c0-3.602-0.954-6.704-2.896-9.168C241.729,58.144,236.3,56.105,229.638,56.105 M145.633,73.195
	l-14.058,36.855l-0.02,0.058c-1.499,4.908-5.044,7.371-10.869,7.418c-2.012,0-3.545-0.742-4.284-1.87
	c-0.418-0.64-0.638-1.373-0.638-2.276c0-0.959,0.262-2.124,0.807-3.422l14.073-36.937c1.519-4.965,5.055-7.434,10.908-7.48
	c2.021,0,3.535,0.743,4.273,1.866c0.395,0.603,0.578,1.255,0.578,2.102C146.414,70.482,146.136,71.713,145.633,73.195
	 M223.088,75.057L223.088,75.057c-0.747,2.031-12.178,33.273-12.22,33.377c-2.224,5.453-5.976,8.5-9.868,8.5
	c-3.583,0-6.433-0.864-7.81-1.599l14.772-39.019c2.186-5.952,6.403-9.159,11.777-9.179c1.673,0.01,2.693,0.485,3.328,1.342
	c0.458,0.625,0.725,1.461,0.725,2.627C223.793,72.165,223.571,73.496,223.088,75.057 M117.584,26.63
	c0.944-2.925,1.415-5.718,1.415-8.327c0-3.831-1.041-7.282-3.107-10.122c-3.94-5.393-11.191-8.125-20.781-8.115l-80.874-0.01
	c-0.057-0.009-0.132-0.009-0.249-0.009c-1.002-0.052-4.547,0.479-5.835,4.979c-0.202,0.682-0.32,1.316-0.32,1.904
	c0,0.701,0.164,1.368,0.569,1.903c0.955,1.157,2.285,1.214,2.699,1.237c0.047,0.01,0.084,0.01,0.122,0.01l31.77,0.009L0.244,126.939
	c-0.019,0.066-0.028,0.104-0.038,0.132c-0.094,0.151-0.183,0.368-0.202,0.725c0,0.196,0.061,0.45,0.183,0.687
	c0.706,1.091,2.699,2.651,12.991,2.698h0.165c12.826,0,15.723-3.433,16.164-4.119c0.053-0.056,0.08-0.103,0.08-0.14h-0.009
	c0.009-0.02,0.009-0.038,0.019-0.038l10.127-26.517l1.092-0.067c0.352-0.055,30.715-1.814,44.608-10.879
	c12.883-8.474,18.228-24.236,18.496-25.003C104.057,64.051,117.066,28.219,117.584,26.63 M89.688,23.532L73.707,67.773
	c-0.254,0.678-6.55,18.131-27.316,20.812l-3.159,0.469l4.593-12.709c4.805-13.201,17.194-47.363,23.669-65.968h10.531
	c3.997,0.01,6.686,1.203,8.021,3.216c0.706,1.063,1.072,2.331,1.072,3.864C91.117,19.169,90.652,21.201,89.688,23.532
	 M475.288,61.977c-3.103-3.907-8.52-5.938-15.195-5.938c-8.962,0.01-18.957,3.004-24.618,7.452c-0.02,0.019-1.448,1.25-3.027,2.766
	l1.345-5.459c0.027-0.198,0.027-0.207,0.027-0.283c0-0.286-0.112-0.789-0.508-1.25c-0.686-0.789-2.229-1.628-6.018-1.636
	c-6.148-0.037-7.691,2.656-7.786,2.962c-0.028,0.07-4.192,11.372-8.388,22.709c-2.105,5.669-4.204,11.34-5.782,15.608
	c-0.791,2.126-1.439,3.903-1.919,5.163c-0.234,0.62-0.414,1.128-0.536,1.457c-0.057,0.161-0.112,0.301-0.149,0.386
	c0,0.037-0.02,0.076-0.02,0.094c-2.933,5.136-9.534,8.275-13.475,8.237c-0.837,0-1.532-0.132-2.021-0.366
	c-0.583-0.311-1.656-0.931-1.676-2.867c0-0.659,0.134-1.477,0.5-2.484h0.038c0.037-0.225,1.279-3.609,14.913-40.56
	c0.16-0.414,0.48-1.425,0.498-3.005c0-1.067-0.187-2.3-0.789-3.513c-1.242-2.435-3.771-4.103-7.307-5.044
	c-1.974-0.532-3.687-0.752-5.182-0.752c-6.77,0.009-8.764,4.574-8.886,5.082c-0.01,0.029-0.029,0.079-0.037,0.127
	c-0.067-0.09-0.122-0.165-0.199-0.239c-1.954-2.353-7.521-4.528-12.393-4.585c-11.697-0.08-28.792,3.917-39.192,35.319l-1.147,3.385
	l-2.256,6.884c0,0.018-0.039,0.084-0.058,0.084c-6.479,7.456-19.86,12.064-28.689,12.036c-3.676,0.01-8.726-1.561-11.745-5.887
	c-1.278-1.833-2.482-4.598-2.482-8.623c0-2.604,0.508-5.764,1.872-9.515l24.787-68.514c2.623-6.681,8.557-10.07,18.347-10.108h0.206
	c3.085,0.019,8.613,1.627,10.531,4.091c0.545,0.705,0.789,1.387,0.789,2.06c0,0.191-0.018,0.403-0.056,0.62
	c-1.194,5.432-5.059,14.162-7.249,18.845c-0.236,0.518-0.378,1.077-0.378,1.636c0,0.94,0.378,1.866,1.063,2.608
	c0.818,0.894,2.183,1.586,3.912,1.586c0.79,0,1.655-0.142,2.587-0.471l13.06-4.715c1.43-0.588,2.925-1.85,3.451-2.611
	c3.057-5.345,5.172-10.804,6.282-16.233c0.149-0.752,0.234-1.496,0.215-2.224c0.02-2.351-0.808-4.557-2.37-6.493
	c-4.615-5.661-15.139-9.004-27.683-9.192c-0.318,0-0.647,0-0.978,0c-28.116-0.033-49.592,15.317-58.648,42.018
	c0,0.02-13.597,37.735-13.635,37.872c-2.496,6.348-3.756,12.365-3.756,17.856c0,5.999,1.519,11.359,4.585,15.854
	c5.387,7.88,15.186,12.318,26.808,12.318c13.757-0.019,28.85-4.382,37.792-11.086c0.038-0.029,0.085-0.058,0.112-0.085
	c0.019,0.056,0.038,0.112,0.048,0.169c1.852,6.959,8.35,10.983,17.584,10.944c10.155,0,20.443-3.968,27.646-10.615
	c0.057-0.057,0.112-0.122,0.188-0.179c-0.019,0.094-0.019,0.188-0.019,0.273c0,2.688,0.725,5.021,2.407,6.731
	c1.899,1.938,4.795,2.925,8.086,2.925c5.305-0.01,12.883-1.683,18.686-5.228l-13.024,35.205c0,0.01-1.043,2.812-1.053,2.812
	c-0.058,0.104-0.169,0.348-0.188,0.771c0,0.235,0.065,0.574,0.244,0.865c0.64,0.969,2.52,2.51,10.747,2.529
	c11.389-0.02,13.476-3.714,13.701-4.326l12.639-34.387c2.783,1.138,8.031,2.604,13.352,2.622
	c13.127,0.077,28.398-4.476,39.213-35.186c1.88-5.305,3.338-9.719,4.363-13.965c0.525-2.194,0.789-4.265,0.789-6.182
	C478.185,67.543,477.227,64.437,475.288,61.977 M361.811,106.836L361.811,106.836L361.811,106.836l-0.02,0.018
	c-2.089,5.83-6.45,9.158-11.763,9.178c-1.676-0.02-2.699-0.498-3.33-1.354c-0.46-0.622-0.724-1.449-0.724-2.614
	c0-1.072,0.225-2.407,0.724-4.007c-0.009,0.039,3.094-8.425,6.216-16.906c1.57-4.25,3.131-8.501,4.307-11.675
	c0.584-1.599,1.072-2.929,1.411-3.864c0.179-0.461,0.318-0.827,0.413-1.077c0.037-0.127,0.075-0.22,0.104-0.287v-0.032
	c2.246-5.524,5.999-8.576,9.883-8.566c4.063,0.058,6.036,1.317,6.976,3.832L361.811,106.836z M453.548,74.997l-0.01,0.018h0.01
	c-0.01,0.01-0.01,0.02-0.02,0.028h0.01l-0.01,0.015c-0.563,1.519-12.167,33.216-12.204,33.357c-2.21,5.407-5.954,8.464-9.865,8.444
	c-3.582,0.02-6.422-0.847-7.794-1.579l14.762-39.033c2.191-5.938,6.413-9.163,11.783-9.183c1.674,0.01,2.698,0.498,3.338,1.349
	c0.452,0.612,0.706,1.444,0.715,2.597C454.263,72.08,454.036,73.407,453.548,74.997"/>
<path fill="#ED1C24" d="M492.487,71.337c-4.43,0-7.578-3.311-7.578-7.691c0-4.631,3.506-7.695,7.578-7.695
	c4.033,0,7.532,3.064,7.532,7.695C500.02,68.278,496.521,71.337,492.487,71.337 M492.487,57.29c-3.339,0-5.935,2.609-5.935,6.356
	c0,3.492,2.267,6.353,5.935,6.353c3.301,0,5.877-2.592,5.877-6.353C498.364,59.899,495.788,57.29,492.487,57.29 M490.974,68.046
	h-1.411v-8.523h3.235c2.049,0,3.103,0.725,3.103,2.454c0,1.542-0.949,2.177-2.219,2.323l2.388,3.746h-1.589l-2.21-3.639h-1.297
	V68.046z M492.524,63.212c1.053,0,1.975-0.107,1.975-1.339c0-1.029-1.006-1.156-1.853-1.156h-1.673v2.495H492.524z"/>
</svg>
